<?xml version="1.0" encoding="utf-8"?>
<!-- Generator: Adobe Illustrator 29.3.0, SVG Export Plug-In . SVG Version: 9.03 Build 55982)  -->
<svg version="1.1" id="Layer_1" xmlns:xlink="http://www.w3.org/1999/xlink"
	 xmlns="http://www.w3.org/2000/svg" x="0px" y="0px" viewBox="0 0 102.3 67.8"
	 style="enable-background:new 0 0 102.3 67.8;" xml:space="preserve">
<style type="text/css">
	.st0{fill:#145230;}
</style>
<path class="st0" d="M78.6,26c-1.3-3-4.7-4.5-7.8-3.2c-2.5,1-4,3.7-3.6,6.3l-9.6,4c-1-1.8-2.9-3.1-5-3.5V19.3c2.5-0.7,4.4-3,4.4-5.7
	c0-3.3-2.7-5.9-5.9-5.9l0,0c-3.3,0-5.9,2.7-5.9,5.9c0,2.7,1.9,5,4.4,5.7v10.2c-2.2,0.4-3.9,1.7-5,3.5l-9.6-4c0.4-2.6-1-5.3-3.6-6.3
	c-3-1.3-6.5,0.1-7.8,3.2c-1.3,3,0.1,6.5,3.2,7.8c2.5,1,5.4,0.2,7-1.9l9.8,4c-0.1,0.3-0.1,0.7-0.1,1c0,1.6,0.5,3.2,1.5,4.5L37.3,49
	c-2.3-1.3-5.3-1-7.2,0.9c-2.3,2.3-2.3,6.1,0,8.4c2.3,2.3,6.1,2.3,8.4,0c1.9-1.9,2.2-4.9,0.9-7.2l7.9-7.9c1.1,0.7,2.4,1,3.7,1
	c0.1,0,0.1,0,0.1,0c0.1,0,0.1,0,0.1,0c1.3,0,2.6-0.4,3.7-1l7.9,7.9c-1.3,2.3-1,5.3,0.9,7.3c2.3,2.3,6.1,2.3,8.4,0
	c2.3-2.3,2.3-6.1,0-8.4c-1.9-1.9-4.9-2.2-7.2-0.9l-7.7-7.8c1-1.3,1.5-2.7,1.5-4.5c0-0.3,0-0.7-0.1-1l9.8-4c1.6,2.1,4.4,3,7,1.9
	C78.3,32.5,79.8,29.1,78.6,26L78.6,26z"/>
</svg>
