<?xml version="1.0" encoding="utf-8"?>
<!-- Generator: Adobe Illustrator 29.3.0, SVG Export Plug-In . SVG Version: 9.03 Build 55982)  -->
<svg version="1.1" id="Layer_1" xmlns:xlink="http://www.w3.org/1999/xlink"
	 xmlns="http://www.w3.org/2000/svg" x="0px" y="0px" viewBox="0 0 102.3 67.8"
	 style="enable-background:new 0 0 102.3 67.8;" xml:space="preserve">
<style type="text/css">
	.st0{fill:#145230;}
</style>
<g>
	<path class="st0" d="M74.4,11.6c0,3.3-10.4,5.9-23.2,5.9s-23.2-2.7-23.2-5.9c0-3.3,10.4-5.9,23.2-5.9S74.4,8.4,74.4,11.6L74.4,11.6
		z"/>
	<path class="st0" d="M67.7,26.5c-1,0-1.7-0.6-1.7-1.5c0-0.9,0.7-1.5,1.7-1.5s1.7,0.6,1.7,1.5C69.4,25.9,68.7,26.5,67.7,26.5
		L67.7,26.5z M51.1,20.5c-12.8,0-23.2-2.7-23.2-5.9v11.9c0,3.3,10.5,5.9,23.2,5.9s23.2-2.7,23.2-5.9V14.6
		C74.4,17.9,63.9,20.5,51.1,20.5L51.1,20.5z"/>
	<path class="st0" d="M67.7,41.3c-1,0-1.7-0.6-1.7-1.5s0.7-1.5,1.7-1.5s1.7,0.6,1.7,1.5S68.7,41.3,67.7,41.3L67.7,41.3z M51.1,35.4
		c-12.8,0-23.2-2.7-23.2-5.9v11.9c0,3.3,10.5,5.9,23.2,5.9s23.2-2.7,23.2-5.9V29.4C74.4,32.7,63.9,35.4,51.1,35.4L51.1,35.4z"/>
	<path class="st0" d="M67.7,56.2c-1,0-1.7-0.6-1.7-1.5s0.7-1.5,1.7-1.5s1.7,0.6,1.7,1.5S68.7,56.2,67.7,56.2L67.7,56.2z M51.1,50.2
		c-12.8,0-23.2-2.7-23.2-5.9v11.9c0,3.3,10.5,5.9,23.2,5.9s23.2-2.7,23.2-5.9V44.3C74.4,47.5,63.9,50.2,51.1,50.2L51.1,50.2z"/>
</g>
</svg>
