<?xml version="1.0" encoding="utf-8"?>
<!-- Generator: Adobe Illustrator 29.3.0, SVG Export Plug-In . SVG Version: 9.03 Build 55982)  -->
<svg version="1.1" id="Layer_1" xmlns:xlink="http://www.w3.org/1999/xlink"
	 xmlns="http://www.w3.org/2000/svg" x="0px" y="0px" viewBox="0 0 102.3 67.8"
	 style="enable-background:new 0 0 102.3 67.8;" xml:space="preserve">
<style type="text/css">
	.st0{fill:#145230;}
</style>
<g>
	<path class="st0" d="M68.7,17.2c-2.1,0-3.9-1.8-3.8-4c0-2.1,1.8-3.9,3.9-3.9c2.1,0,3.9,1.8,3.9,3.9c0,1.1-0.4,2-1.1,2.7
		C70.8,16.8,69.8,17.2,68.7,17.2L68.7,17.2z M65,5c-1.9,0.7-3.4,2.2-4.4,4c-1.2,2.4-1.4,5.1-0.4,7.6l4.2,9.2l2.8,5.8
		c0.3,0.6,0.9,1,1.6,1s1.3-0.4,1.6-1l2.8-5.8l4.2-9.1c0.4-1.1,0.6-2.2,0.6-3.4C78,7.1,71.7,2.4,65,5L65,5z"/>
	<path class="st0" d="M49.4,54.8l-14.1-7.1V19L49.4,26V54.8L49.4,54.8L49.4,54.8z M31.7,47.7L21.2,53V24.3L31.7,19V47.7L31.7,47.7
		L31.7,47.7z M80.6,18.1L80.6,18.1l-2.2,4.8l2.7,1.4V53l-10.6-5.3V36H67v11.7l-14.1,7.1V26l6.3-3.2l-2.2-4.8L51.1,21l-17.6-8.8
		L15.9,21v40.6l17.6-8.8l17.6,8.8l17.6-8.8l17.6,8.8V21L80.6,18.1L80.6,18.1L80.6,18.1z"/>
</g>
</svg>
